<svg width="430" height="634" viewBox="0 0 430 634" fill="none" xmlns="http://www.w3.org/2000/svg">
<path d="M-30.408 60.64C-16.84 60.64 -10.248 53.6 -10.248 43.616V42.144H-23.112V42.336C-23.112 47.264 -24.712 48.928 -30.664 48.928C-36.808 48.928 -38.792 47.456 -38.792 38.56C-38.792 29.664 -36.808 28.192 -30.664 28.192C-24.712 28.192 -23.112 29.856 -23.112 34.784V34.976H-10.248V33.504C-10.248 23.52 -16.84 16.48 -30.408 16.48C-44.232 16.48 -51.72 25.184 -51.72 38.56C-51.72 51.936 -44.232 60.64 -30.408 60.64ZM14.4985 60C28.5785 60 36.3225 52.128 36.3225 38.56C36.3225 24.992 28.5785 17.12 14.4985 17.12H-3.9975V60L14.4985 60ZM13.8585 27.936C21.4105 27.936 23.3305 29.536 23.3305 38.56C23.3305 47.584 21.4105 49.184 13.8585 49.184L8.0345 49.184V27.936H13.8585ZM54.547 60V17.12L42.515 17.12V60H54.547Z" fill="#FAFAFA" fill-opacity="0.7"/>
<path d="M111.592 60.64C125.16 60.64 131.752 53.6 131.752 43.616V42.144H118.888V42.336C118.888 47.264 117.288 48.928 111.336 48.928C105.192 48.928 103.208 47.456 103.208 38.56C103.208 29.664 105.192 28.192 111.336 28.192C117.288 28.192 118.888 29.856 118.888 34.784V34.976H131.752V33.504C131.752 23.52 125.16 16.48 111.592 16.48C97.768 16.48 90.28 25.184 90.28 38.56C90.28 51.936 97.768 60.64 111.592 60.64ZM156.499 60C170.579 60 178.323 52.128 178.323 38.56C178.323 24.992 170.579 17.12 156.499 17.12H138.003V60L156.499 60ZM155.859 27.936C163.411 27.936 165.331 29.536 165.331 38.56C165.331 47.584 163.411 49.184 155.859 49.184L150.035 49.184V27.936H155.859ZM196.547 60V17.12L184.515 17.12V60H196.547Z" fill="#FAFAFA" fill-opacity="0.7"/>
<path d="M253.592 60.64C267.16 60.64 273.752 53.6 273.752 43.616V42.144H260.888V42.336C260.888 47.264 259.288 48.928 253.336 48.928C247.192 48.928 245.208 47.456 245.208 38.56C245.208 29.664 247.192 28.192 253.336 28.192C259.288 28.192 260.888 29.856 260.888 34.784V34.976H273.752V33.504C273.752 23.52 267.16 16.48 253.592 16.48C239.768 16.48 232.28 25.184 232.28 38.56C232.28 51.936 239.768 60.64 253.592 60.64ZM298.499 60C312.579 60 320.323 52.128 320.323 38.56C320.323 24.992 312.579 17.12 298.499 17.12H280.003V60L298.499 60ZM297.859 27.936C305.411 27.936 307.331 29.536 307.331 38.56C307.331 47.584 305.411 49.184 297.859 49.184L292.035 49.184V27.936H297.859ZM338.547 60V17.12L326.515 17.12V60H338.547Z" fill="#FAFAFA" fill-opacity="0.7"/>
<path d="M395.592 60.64C409.16 60.64 415.752 53.6 415.752 43.616V42.144H402.888V42.336C402.888 47.264 401.288 48.928 395.336 48.928C389.192 48.928 387.208 47.456 387.208 38.56C387.208 29.664 389.192 28.192 395.336 28.192C401.288 28.192 402.888 29.856 402.888 34.784V34.976H415.752V33.504C415.752 23.52 409.16 16.48 395.592 16.48C381.768 16.48 374.28 25.184 374.28 38.56C374.28 51.936 381.768 60.64 395.592 60.64ZM440.499 60C454.579 60 462.323 52.128 462.323 38.56C462.323 24.992 454.579 17.12 440.499 17.12H422.003V60L440.499 60ZM439.859 27.936C447.411 27.936 449.331 29.536 449.331 38.56C449.331 47.584 447.411 49.184 439.859 49.184L434.035 49.184V27.936H439.859ZM480.547 60V17.12L468.515 17.12V60H480.547Z" fill="#FAFAFA" fill-opacity="0.7"/>
<path d="M-30.408 171.64C-16.84 171.64 -10.248 164.6 -10.248 154.616V153.144H-23.112V153.336C-23.112 158.264 -24.712 159.928 -30.664 159.928C-36.808 159.928 -38.792 158.456 -38.792 149.56C-38.792 140.664 -36.808 139.192 -30.664 139.192C-24.712 139.192 -23.112 140.856 -23.112 145.784V145.976H-10.248V144.504C-10.248 134.52 -16.84 127.48 -30.408 127.48C-44.232 127.48 -51.72 136.184 -51.72 149.56C-51.72 162.936 -44.232 171.64 -30.408 171.64ZM14.4985 171C28.5785 171 36.3225 163.128 36.3225 149.56C36.3225 135.992 28.5785 128.12 14.4985 128.12H-3.9975V171H14.4985ZM13.8585 138.936C21.4105 138.936 23.3305 140.536 23.3305 149.56C23.3305 158.584 21.4105 160.184 13.8585 160.184H8.0345V138.936H13.8585ZM54.547 171V128.12H42.515V171H54.547Z" fill="#FAFAFA" fill-opacity="0.7"/>
<path d="M111.592 171.64C125.16 171.64 131.752 164.6 131.752 154.616V153.144H118.888V153.336C118.888 158.264 117.288 159.928 111.336 159.928C105.192 159.928 103.208 158.456 103.208 149.56C103.208 140.664 105.192 139.192 111.336 139.192C117.288 139.192 118.888 140.856 118.888 145.784V145.976H131.752V144.504C131.752 134.52 125.16 127.48 111.592 127.48C97.768 127.48 90.28 136.184 90.28 149.56C90.28 162.936 97.768 171.64 111.592 171.64ZM156.499 171C170.579 171 178.323 163.128 178.323 149.56C178.323 135.992 170.579 128.12 156.499 128.12H138.003V171H156.499ZM155.859 138.936C163.411 138.936 165.331 140.536 165.331 149.56C165.331 158.584 163.411 160.184 155.859 160.184H150.035V138.936H155.859ZM196.547 171V128.12H184.515V171H196.547Z" fill="#FAFAFA" fill-opacity="0.7"/>
<path d="M253.592 171.64C267.16 171.64 273.752 164.6 273.752 154.616V153.144H260.888V153.336C260.888 158.264 259.288 159.928 253.336 159.928C247.192 159.928 245.208 158.456 245.208 149.56C245.208 140.664 247.192 139.192 253.336 139.192C259.288 139.192 260.888 140.856 260.888 145.784V145.976H273.752V144.504C273.752 134.52 267.16 127.48 253.592 127.48C239.768 127.48 232.28 136.184 232.28 149.56C232.28 162.936 239.768 171.64 253.592 171.64ZM298.499 171C312.579 171 320.323 163.128 320.323 149.56C320.323 135.992 312.579 128.12 298.499 128.12H280.003V171H298.499ZM297.859 138.936C305.411 138.936 307.331 140.536 307.331 149.56C307.331 158.584 305.411 160.184 297.859 160.184H292.035V138.936H297.859ZM338.547 171V128.12H326.515V171H338.547Z" fill="#FAFAFA" fill-opacity="0.7"/>
<path d="M395.592 171.64C409.16 171.64 415.752 164.6 415.752 154.616V153.144H402.888V153.336C402.888 158.264 401.288 159.928 395.336 159.928C389.192 159.928 387.208 158.456 387.208 149.56C387.208 140.664 389.192 139.192 395.336 139.192C401.288 139.192 402.888 140.856 402.888 145.784V145.976H415.752V144.504C415.752 134.52 409.16 127.48 395.592 127.48C381.768 127.48 374.28 136.184 374.28 149.56C374.28 162.936 381.768 171.64 395.592 171.64ZM440.499 171C454.579 171 462.323 163.128 462.323 149.56C462.323 135.992 454.579 128.12 440.499 128.12H422.003V171H440.499ZM439.859 138.936C447.411 138.936 449.331 140.536 449.331 149.56C449.331 158.584 447.411 160.184 439.859 160.184H434.035V138.936H439.859ZM480.547 171V128.12H468.515V171H480.547Z" fill="#FAFAFA" fill-opacity="0.7"/>
<path d="M-30.408 282.64C-16.84 282.64 -10.248 275.6 -10.248 265.616V264.144H-23.112V264.336C-23.112 269.264 -24.712 270.928 -30.664 270.928C-36.808 270.928 -38.792 269.456 -38.792 260.56C-38.792 251.664 -36.808 250.192 -30.664 250.192C-24.712 250.192 -23.112 251.856 -23.112 256.784V256.976H-10.248V255.504C-10.248 245.52 -16.84 238.48 -30.408 238.48C-44.232 238.48 -51.72 247.184 -51.72 260.56C-51.72 273.936 -44.232 282.64 -30.408 282.64ZM14.4985 282C28.5785 282 36.3225 274.128 36.3225 260.56C36.3225 246.992 28.5785 239.12 14.4985 239.12H-3.9975V282H14.4985ZM13.8585 249.936C21.4105 249.936 23.3305 251.536 23.3305 260.56C23.3305 269.584 21.4105 271.184 13.8585 271.184H8.0345V249.936H13.8585ZM54.547 282V239.12H42.515V282H54.547Z" fill="#FAFAFA" fill-opacity="0.7"/>
<path d="M111.592 282.64C125.16 282.64 131.752 275.6 131.752 265.616V264.144H118.888V264.336C118.888 269.264 117.288 270.928 111.336 270.928C105.192 270.928 103.208 269.456 103.208 260.56C103.208 251.664 105.192 250.192 111.336 250.192C117.288 250.192 118.888 251.856 118.888 256.784V256.976H131.752V255.504C131.752 245.52 125.16 238.48 111.592 238.48C97.768 238.48 90.28 247.184 90.28 260.56C90.28 273.936 97.768 282.64 111.592 282.64ZM156.499 282C170.579 282 178.323 274.128 178.323 260.56C178.323 246.992 170.579 239.12 156.499 239.12H138.003V282H156.499ZM155.859 249.936C163.411 249.936 165.331 251.536 165.331 260.56C165.331 269.584 163.411 271.184 155.859 271.184H150.035V249.936H155.859ZM196.547 282V239.12H184.515V282H196.547Z" fill="#FAFAFA" fill-opacity="0.7"/>
<path d="M253.592 282.64C267.16 282.64 273.752 275.6 273.752 265.616V264.144H260.888V264.336C260.888 269.264 259.288 270.928 253.336 270.928C247.192 270.928 245.208 269.456 245.208 260.56C245.208 251.664 247.192 250.192 253.336 250.192C259.288 250.192 260.888 251.856 260.888 256.784V256.976H273.752V255.504C273.752 245.52 267.16 238.48 253.592 238.48C239.768 238.48 232.28 247.184 232.28 260.56C232.28 273.936 239.768 282.64 253.592 282.64ZM298.499 282C312.579 282 320.323 274.128 320.323 260.56C320.323 246.992 312.579 239.12 298.499 239.12H280.003V282H298.499ZM297.859 249.936C305.411 249.936 307.331 251.536 307.331 260.56C307.331 269.584 305.411 271.184 297.859 271.184H292.035V249.936H297.859ZM338.547 282V239.12H326.515V282H338.547Z" fill="#FAFAFA" fill-opacity="0.7"/>
<path d="M395.592 282.64C409.16 282.64 415.752 275.6 415.752 265.616V264.144H402.888V264.336C402.888 269.264 401.288 270.928 395.336 270.928C389.192 270.928 387.208 269.456 387.208 260.56C387.208 251.664 389.192 250.192 395.336 250.192C401.288 250.192 402.888 251.856 402.888 256.784V256.976H415.752V255.504C415.752 245.52 409.16 238.48 395.592 238.48C381.768 238.48 374.28 247.184 374.28 260.56C374.28 273.936 381.768 282.64 395.592 282.64ZM440.499 282C454.579 282 462.323 274.128 462.323 260.56C462.323 246.992 454.579 239.12 440.499 239.12H422.003V282H440.499ZM439.859 249.936C447.411 249.936 449.331 251.536 449.331 260.56C449.331 269.584 447.411 271.184 439.859 271.184H434.035V249.936H439.859ZM480.547 282V239.12H468.515V282H480.547Z" fill="#FAFAFA" fill-opacity="0.7"/>
<path d="M-30.408 393.64C-16.84 393.64 -10.248 386.6 -10.248 376.616V375.144H-23.112V375.336C-23.112 380.264 -24.712 381.928 -30.664 381.928C-36.808 381.928 -38.792 380.456 -38.792 371.56C-38.792 362.664 -36.808 361.192 -30.664 361.192C-24.712 361.192 -23.112 362.856 -23.112 367.784V367.976H-10.248V366.504C-10.248 356.52 -16.84 349.48 -30.408 349.48C-44.232 349.48 -51.72 358.184 -51.72 371.56C-51.72 384.936 -44.232 393.64 -30.408 393.64ZM14.4985 393C28.5785 393 36.3225 385.128 36.3225 371.56C36.3225 357.992 28.5785 350.12 14.4985 350.12H-3.9975V393H14.4985ZM13.8585 360.936C21.4105 360.936 23.3305 362.536 23.3305 371.56C23.3305 380.584 21.4105 382.184 13.8585 382.184H8.0345V360.936H13.8585ZM54.547 393V350.12H42.515V393H54.547Z" fill="#FAFAFA" fill-opacity="0.7"/>
<path d="M111.592 393.64C125.16 393.64 131.752 386.6 131.752 376.616V375.144H118.888V375.336C118.888 380.264 117.288 381.928 111.336 381.928C105.192 381.928 103.208 380.456 103.208 371.56C103.208 362.664 105.192 361.192 111.336 361.192C117.288 361.192 118.888 362.856 118.888 367.784V367.976H131.752V366.504C131.752 356.52 125.16 349.48 111.592 349.48C97.768 349.48 90.28 358.184 90.28 371.56C90.28 384.936 97.768 393.64 111.592 393.64ZM156.499 393C170.579 393 178.323 385.128 178.323 371.56C178.323 357.992 170.579 350.12 156.499 350.12H138.003V393H156.499ZM155.859 360.936C163.411 360.936 165.331 362.536 165.331 371.56C165.331 380.584 163.411 382.184 155.859 382.184H150.035V360.936H155.859ZM196.547 393V350.12H184.515V393H196.547Z" fill="#FAFAFA" fill-opacity="0.7"/>
<path d="M253.592 393.64C267.16 393.64 273.752 386.6 273.752 376.616V375.144H260.888V375.336C260.888 380.264 259.288 381.928 253.336 381.928C247.192 381.928 245.208 380.456 245.208 371.56C245.208 362.664 247.192 361.192 253.336 361.192C259.288 361.192 260.888 362.856 260.888 367.784V367.976H273.752V366.504C273.752 356.52 267.16 349.48 253.592 349.48C239.768 349.48 232.28 358.184 232.28 371.56C232.28 384.936 239.768 393.64 253.592 393.64ZM298.499 393C312.579 393 320.323 385.128 320.323 371.56C320.323 357.992 312.579 350.12 298.499 350.12H280.003V393H298.499ZM297.859 360.936C305.411 360.936 307.331 362.536 307.331 371.56C307.331 380.584 305.411 382.184 297.859 382.184H292.035V360.936H297.859ZM338.547 393V350.12H326.515V393H338.547Z" fill="#FAFAFA" fill-opacity="0.7"/>
<path d="M395.592 393.64C409.16 393.64 415.752 386.6 415.752 376.616V375.144H402.888V375.336C402.888 380.264 401.288 381.928 395.336 381.928C389.192 381.928 387.208 380.456 387.208 371.56C387.208 362.664 389.192 361.192 395.336 361.192C401.288 361.192 402.888 362.856 402.888 367.784V367.976H415.752V366.504C415.752 356.52 409.16 349.48 395.592 349.48C381.768 349.48 374.28 358.184 374.28 371.56C374.28 384.936 381.768 393.64 395.592 393.64ZM440.499 393C454.579 393 462.323 385.128 462.323 371.56C462.323 357.992 454.579 350.12 440.499 350.12H422.003V393H440.499ZM439.859 360.936C447.411 360.936 449.331 362.536 449.331 371.56C449.331 380.584 447.411 382.184 439.859 382.184H434.035V360.936H439.859ZM480.547 393V350.12H468.515V393H480.547Z" fill="#FAFAFA" fill-opacity="0.7"/>
<path d="M-30.408 504.64C-16.84 504.64 -10.248 497.6 -10.248 487.616V486.144H-23.112V486.336C-23.112 491.264 -24.712 492.928 -30.664 492.928C-36.808 492.928 -38.792 491.456 -38.792 482.56C-38.792 473.664 -36.808 472.192 -30.664 472.192C-24.712 472.192 -23.112 473.856 -23.112 478.784V478.976H-10.248V477.504C-10.248 467.52 -16.84 460.48 -30.408 460.48C-44.232 460.48 -51.72 469.184 -51.72 482.56C-51.72 495.936 -44.232 504.64 -30.408 504.64ZM14.4985 504C28.5785 504 36.3225 496.128 36.3225 482.56C36.3225 468.992 28.5785 461.12 14.4985 461.12H-3.9975V504H14.4985ZM13.8585 471.936C21.4105 471.936 23.3305 473.536 23.3305 482.56C23.3305 491.584 21.4105 493.184 13.8585 493.184H8.0345V471.936H13.8585ZM54.547 504V461.12H42.515V504H54.547Z" fill="#FAFAFA" fill-opacity="0.7"/>
<path d="M111.592 504.64C125.16 504.64 131.752 497.6 131.752 487.616V486.144H118.888V486.336C118.888 491.264 117.288 492.928 111.336 492.928C105.192 492.928 103.208 491.456 103.208 482.56C103.208 473.664 105.192 472.192 111.336 472.192C117.288 472.192 118.888 473.856 118.888 478.784V478.976H131.752V477.504C131.752 467.52 125.16 460.48 111.592 460.48C97.768 460.48 90.28 469.184 90.28 482.56C90.28 495.936 97.768 504.64 111.592 504.64ZM156.499 504C170.579 504 178.323 496.128 178.323 482.56C178.323 468.992 170.579 461.12 156.499 461.12H138.003V504H156.499ZM155.859 471.936C163.411 471.936 165.331 473.536 165.331 482.56C165.331 491.584 163.411 493.184 155.859 493.184H150.035V471.936H155.859ZM196.547 504V461.12H184.515V504H196.547Z" fill="#FAFAFA" fill-opacity="0.7"/>
<path d="M253.592 504.64C267.16 504.64 273.752 497.6 273.752 487.616V486.144H260.888V486.336C260.888 491.264 259.288 492.928 253.336 492.928C247.192 492.928 245.208 491.456 245.208 482.56C245.208 473.664 247.192 472.192 253.336 472.192C259.288 472.192 260.888 473.856 260.888 478.784V478.976H273.752V477.504C273.752 467.52 267.16 460.48 253.592 460.48C239.768 460.48 232.28 469.184 232.28 482.56C232.28 495.936 239.768 504.64 253.592 504.64ZM298.499 504C312.579 504 320.323 496.128 320.323 482.56C320.323 468.992 312.579 461.12 298.499 461.12H280.003V504H298.499ZM297.859 471.936C305.411 471.936 307.331 473.536 307.331 482.56C307.331 491.584 305.411 493.184 297.859 493.184H292.035V471.936H297.859ZM338.547 504V461.12H326.515V504H338.547Z" fill="#FAFAFA" fill-opacity="0.7"/>
<path d="M395.592 504.64C409.16 504.64 415.752 497.6 415.752 487.616V486.144H402.888V486.336C402.888 491.264 401.288 492.928 395.336 492.928C389.192 492.928 387.208 491.456 387.208 482.56C387.208 473.664 389.192 472.192 395.336 472.192C401.288 472.192 402.888 473.856 402.888 478.784V478.976H415.752V477.504C415.752 467.52 409.16 460.48 395.592 460.48C381.768 460.48 374.28 469.184 374.28 482.56C374.28 495.936 381.768 504.64 395.592 504.64ZM440.499 504C454.579 504 462.323 496.128 462.323 482.56C462.323 468.992 454.579 461.12 440.499 461.12H422.003V504H440.499ZM439.859 471.936C447.411 471.936 449.331 473.536 449.331 482.56C449.331 491.584 447.411 493.184 439.859 493.184H434.035V471.936H439.859ZM480.547 504V461.12H468.515V504H480.547Z" fill="#FAFAFA" fill-opacity="0.7"/>
<path d="M-30.408 615.64C-16.84 615.64 -10.248 608.6 -10.248 598.616V597.144H-23.112V597.336C-23.112 602.264 -24.712 603.928 -30.664 603.928C-36.808 603.928 -38.792 602.456 -38.792 593.56C-38.792 584.664 -36.808 583.192 -30.664 583.192C-24.712 583.192 -23.112 584.856 -23.112 589.784V589.976H-10.248V588.504C-10.248 578.52 -16.84 571.48 -30.408 571.48C-44.232 571.48 -51.72 580.184 -51.72 593.56C-51.72 606.936 -44.232 615.64 -30.408 615.64ZM14.4985 615C28.5785 615 36.3225 607.128 36.3225 593.56C36.3225 579.992 28.5785 572.12 14.4985 572.12H-3.9975V615H14.4985ZM13.8585 582.936C21.4105 582.936 23.3305 584.536 23.3305 593.56C23.3305 602.584 21.4105 604.184 13.8585 604.184H8.0345V582.936H13.8585ZM54.547 615V572.12H42.515V615H54.547Z" fill="#FAFAFA" fill-opacity="0.7"/>
<path d="M111.592 615.64C125.16 615.64 131.752 608.6 131.752 598.616V597.144H118.888V597.336C118.888 602.264 117.288 603.928 111.336 603.928C105.192 603.928 103.208 602.456 103.208 593.56C103.208 584.664 105.192 583.192 111.336 583.192C117.288 583.192 118.888 584.856 118.888 589.784V589.976H131.752V588.504C131.752 578.52 125.16 571.48 111.592 571.48C97.768 571.48 90.28 580.184 90.28 593.56C90.28 606.936 97.768 615.64 111.592 615.64ZM156.499 615C170.579 615 178.323 607.128 178.323 593.56C178.323 579.992 170.579 572.12 156.499 572.12H138.003V615H156.499ZM155.859 582.936C163.411 582.936 165.331 584.536 165.331 593.56C165.331 602.584 163.411 604.184 155.859 604.184H150.035V582.936H155.859ZM196.547 615V572.12H184.515V615H196.547Z" fill="#FAFAFA" fill-opacity="0.7"/>
<path d="M253.592 615.64C267.16 615.64 273.752 608.6 273.752 598.616V597.144H260.888V597.336C260.888 602.264 259.288 603.928 253.336 603.928C247.192 603.928 245.208 602.456 245.208 593.56C245.208 584.664 247.192 583.192 253.336 583.192C259.288 583.192 260.888 584.856 260.888 589.784V589.976H273.752V588.504C273.752 578.52 267.16 571.48 253.592 571.48C239.768 571.48 232.28 580.184 232.28 593.56C232.28 606.936 239.768 615.64 253.592 615.64ZM298.499 615C312.579 615 320.323 607.128 320.323 593.56C320.323 579.992 312.579 572.12 298.499 572.12H280.003V615H298.499ZM297.859 582.936C305.411 582.936 307.331 584.536 307.331 593.56C307.331 602.584 305.411 604.184 297.859 604.184H292.035V582.936H297.859ZM338.547 615V572.12H326.515V615H338.547Z" fill="#FAFAFA" fill-opacity="0.7"/>
<path d="M395.592 615.64C409.16 615.64 415.752 608.6 415.752 598.616V597.144H402.888V597.336C402.888 602.264 401.288 603.928 395.336 603.928C389.192 603.928 387.208 602.456 387.208 593.56C387.208 584.664 389.192 583.192 395.336 583.192C401.288 583.192 402.888 584.856 402.888 589.784V589.976H415.752V588.504C415.752 578.52 409.16 571.48 395.592 571.48C381.768 571.48 374.28 580.184 374.28 593.56C374.28 606.936 381.768 615.64 395.592 615.64ZM440.499 615C454.579 615 462.323 607.128 462.323 593.56C462.323 579.992 454.579 572.12 440.499 572.12H422.003V615H440.499ZM439.859 582.936C447.411 582.936 449.331 584.536 449.331 593.56C449.331 602.584 447.411 604.184 439.859 604.184H434.035V582.936H439.859ZM480.547 615V572.12H468.515V615H480.547Z" fill="#FAFAFA" fill-opacity="0.7"/>
</svg>
