<svg width="25" height="24" viewBox="0 0 25 24" fill="none" xmlns="http://www.w3.org/2000/svg">
<path d="M12.425 22.275C7.1938 22.275 1.55005 18.9938 1.55005 11.7938C1.55005 4.59375 7.1938 1.3125 12.425 1.3125C15.3313 1.3125 18.0125 2.26875 20 4.0125C22.1563 5.925 23.3 8.625 23.3 11.7938C23.3 14.9625 22.1563 17.6438 20 19.5563C18.0125 21.3 15.3125 22.275 12.425 22.275Z" fill="url(#paint0_radial_88_229)"/>
<path d="M5.21569 13.2319C5.53256 13.9387 5.95069 14.5987 6.45506 15.1875C6.95381 15.7687 7.53319 16.2731 8.17631 16.6875C8.81569 17.1037 9.50944 17.4281 10.2388 17.6494C11.7081 18.0788 13.2695 18.0788 14.7388 17.6494C15.4682 17.4281 16.1619 17.1037 16.8013 16.6875C17.4519 16.275 18.0407 15.7687 18.5451 15.1875C19.0494 14.6006 19.4657 13.9462 19.7844 13.2412C19.8969 13.0369 20.1519 12.9619 20.3563 13.0744C20.5251 13.1681 20.6113 13.3631 20.5626 13.5506C20.2604 14.3608 19.8354 15.1197 19.3026 15.8006C18.4922 16.8296 17.459 17.6613 16.2807 18.2332C15.1025 18.8051 13.8098 19.1024 12.5001 19.1025C11.19 19.1021 9.89709 18.8043 8.71878 18.2317C7.54046 17.6591 6.50745 16.8266 5.69756 15.7969C5.16469 15.1159 4.73972 14.357 4.43756 13.5469C4.34944 13.3331 4.45069 13.0856 4.66444 12.9975C4.87819 12.9094 5.12569 13.0106 5.21381 13.2244L5.21569 13.2319Z" fill="#422B0D"/>
<path d="M21.4045 5.56311C22.4039 7.17561 22.9251 9.09561 22.9251 11.2312C22.9251 14.4 21.7814 17.0812 19.6251 18.9937C17.6376 20.7375 14.9376 21.7125 12.0501 21.7125C8.66386 21.7125 5.11261 20.3344 3.01636 17.4112C5.03386 20.7225 8.82886 22.275 12.4251 22.275C15.3126 22.275 18.0126 21.3 20.0001 19.5562C22.1564 17.6437 23.3001 14.9625 23.3001 11.7937C23.3001 9.40499 22.6495 7.28249 21.4045 5.56311Z" fill="#EB8F00"/>
<path d="M9.90317 10.5188L9.87504 10.4775L9.83567 10.4269C9.82067 10.4063 9.80567 10.3894 9.78692 10.3725L9.67067 10.2563C9.62379 10.2094 9.56754 10.1588 9.50942 10.1081C9.38567 10.0013 9.24692 9.91501 9.09692 9.84751C8.95067 9.78188 8.79129 9.75001 8.63192 9.75001H8.56254C8.54461 9.74626 8.5261 9.74626 8.50817 9.75001C8.47442 9.75376 8.44067 9.75938 8.40692 9.76688C8.32817 9.78563 8.25317 9.81001 8.17817 9.84001C8.02817 9.90751 7.88942 9.99376 7.76567 10.1006C7.66442 10.1869 7.57067 10.2788 7.48254 10.3763L7.37567 10.4963L7.31942 10.56C7.21249 10.6863 7.05978 10.765 6.89487 10.7787C6.72996 10.7924 6.56636 10.74 6.44004 10.6331C6.34197 10.5499 6.27191 10.4385 6.23937 10.314C6.20683 10.1896 6.21339 10.0581 6.25817 9.93751L6.27879 9.87751C6.29754 9.81938 6.32004 9.76313 6.34442 9.70688C6.43442 9.50251 6.54879 9.31126 6.68754 9.13688C7.01567 8.70376 7.47692 8.38876 8.00004 8.23876C8.10692 8.21063 8.21567 8.19001 8.32629 8.17501C8.38254 8.17501 8.46504 8.15813 8.48942 8.15813H8.63192C8.84567 8.16188 9.05754 8.19188 9.26379 8.24626C9.46067 8.30063 9.65004 8.37938 9.82629 8.48063C10.1169 8.64938 10.3719 8.87626 10.5763 9.14438C10.655 9.24563 10.7263 9.35063 10.7882 9.46313C10.8388 9.55126 10.8838 9.64126 10.9232 9.73313C10.9382 9.76313 10.9513 9.79501 10.9607 9.82688C10.9607 9.85126 10.9757 9.87188 10.9813 9.88876L11 9.93751C11.1069 10.2694 10.925 10.6256 10.5932 10.7325C10.3419 10.8113 10.0663 10.725 9.90317 10.5188ZM18.0275 10.5188L17.9938 10.4775L17.9544 10.4269C17.9394 10.4063 17.9244 10.3894 17.9057 10.3725L17.7894 10.2563C17.7425 10.2094 17.6863 10.1588 17.6282 10.1081C17.5044 10.0013 17.3657 9.91501 17.2157 9.84751C17.0713 9.78376 16.9138 9.75001 16.7563 9.75001H16.6794C16.6615 9.74626 16.643 9.74626 16.625 9.75001C16.5913 9.75376 16.5575 9.75938 16.5238 9.76688C16.445 9.78563 16.37 9.81001 16.295 9.84001C16.1432 9.90938 16.0007 9.99938 15.875 10.1081C15.7738 10.1944 15.68 10.2863 15.59 10.3838L15.5 10.5L15.4438 10.5638C15.3938 10.6289 15.3315 10.6834 15.2604 10.7243C15.1893 10.7653 15.1108 10.7917 15.0294 10.8022C14.948 10.8126 14.8654 10.8069 14.7862 10.7853C14.707 10.7637 14.6329 10.7266 14.5682 10.6763C14.4584 10.5921 14.3799 10.4738 14.3449 10.34C14.3099 10.2062 14.3205 10.0646 14.375 9.93751L14.3957 9.87751C14.4144 9.81938 14.4369 9.76313 14.4613 9.70688C14.5494 9.50063 14.6657 9.30751 14.8025 9.12938C15.1307 8.69626 15.5919 8.38126 16.115 8.23126C16.2219 8.20313 16.3307 8.18251 16.4413 8.16751C16.4975 8.16751 16.5782 8.15063 16.6044 8.15063H16.7469C16.9607 8.15438 17.1725 8.18438 17.3788 8.23876C17.5757 8.29313 17.765 8.37188 17.9413 8.47313C18.2319 8.64188 18.4869 8.86876 18.6913 9.13688C18.77 9.23813 18.8413 9.34313 18.9032 9.45563C18.9538 9.54376 18.9988 9.63376 19.0382 9.72563C19.0532 9.75563 19.0663 9.78751 19.0757 9.81938L19.0963 9.88126L19.1132 9.93188C19.22 10.2638 19.0382 10.6181 18.7063 10.725C18.4569 10.8056 18.185 10.7231 18.0219 10.5188H18.0275Z" fill="#422B0D"/>
<path d="M16.7506 16.7382C16.595 16.8357 16.4375 16.9257 16.2762 17.0157C16.4637 16.9144 16.6512 16.8075 16.8237 16.6932L16.7506 16.7382ZM14.375 17.7525C14.5006 17.7225 14.6262 17.6907 14.75 17.6532C14.63 17.6925 14.5044 17.7207 14.375 17.7525ZM14.75 17.655C14.9244 17.6044 15.0931 17.5463 15.2619 17.4825C15.0969 17.5463 14.9375 17.6044 14.75 17.655ZM17.7894 15.9563C17.675 16.0575 17.5569 16.155 17.435 16.2469C17.375 16.2957 17.3131 16.3407 17.2475 16.3875C17.1069 16.4944 16.9644 16.5975 16.8181 16.6932C17.0056 16.575 17.1744 16.4475 17.3469 16.3182C17.5194 16.1888 17.6487 16.0819 17.7894 15.9563Z" fill="#FF4081"/>
<path opacity="0.3" d="M15.2656 17.4826H15.2806H15.2656ZM15.7756 17.2688H15.7869H15.7756ZM18.155 15.6019C18.1419 15.6151 18.1306 15.6282 18.1175 15.6394C18.0125 15.7501 17.9019 15.8551 17.7894 15.9563C17.9075 15.8513 18.0219 15.7426 18.1306 15.6282L18.155 15.6019Z" fill="#AB3F2E"/>
<path d="M13.3157 17.9325L14.0113 18.6712L14.0788 18.7406L13.3157 17.9325Z" fill="#FF4081"/>
<path opacity="0.3" d="M14.0789 18.7406L14.2457 18.9206L14.2476 18.9187V18.9169L14.0789 18.7406Z" fill="#AB3F2E"/>
<path d="M21.0539 16.7082L19.7414 15.3357L19.6889 15.2813L19.1864 14.7563L19.0382 14.6007L19.0195 14.5819C18.8714 14.7919 18.7139 14.9944 18.5451 15.1875C18.0464 15.7688 17.467 16.2732 16.8239 16.6875C16.1852 17.1039 15.4908 17.4277 14.7614 17.6494C14.2926 17.7882 13.8107 17.88 13.3232 17.9269L14.0789 18.75L14.2476 18.9263L14.3826 19.0669L14.4595 19.1475L16.3982 21.1725C17.5214 22.3463 19.3832 22.3875 20.557 21.2644L20.962 20.8763C22.1376 19.7532 22.1826 17.8913 21.0595 16.7138L21.0539 16.7082Z" fill="#FF4081"/>
<path d="M18.4382 18.1182L16.9738 16.5863C16.9232 16.6219 16.8744 16.6594 16.8238 16.6932C16.6682 16.7926 16.5107 16.8807 16.3513 16.9763L17.9188 18.6151C17.9844 18.6844 18.0744 18.7238 18.1701 18.7257C18.2657 18.7294 18.3576 18.6938 18.4269 18.6263C18.5694 18.4913 18.5769 18.2663 18.4419 18.1219L18.4382 18.1182Z" fill="#E62B6B"/>
<path opacity="0.3" d="M19.177 14.7487L19.0289 14.5931L19.0101 14.5743C18.8657 14.7862 18.7101 14.9906 18.5451 15.1875C18.0464 15.7687 17.467 16.2731 16.8239 16.6875C16.1852 17.1038 15.4908 17.4276 14.7614 17.6493C14.2926 17.7881 13.8107 17.88 13.3232 17.9268L14.0789 18.75L14.2476 18.9262C17.737 17.6606 18.9464 15.3206 19.177 14.7487Z" fill="#AB3F2E"/>
<defs>
<radialGradient id="paint0_radial_88_229" cx="0" cy="0" r="1" gradientUnits="userSpaceOnUse" gradientTransform="translate(12.425 11.7938) scale(10.68)">
<stop offset="0.5" stop-color="#FDE030"/>
<stop offset="0.92" stop-color="#F7C02B"/>
<stop offset="1" stop-color="#F4A223"/>
</radialGradient>
</defs>
</svg>
