<svg width="18" height="16" viewBox="0 0 18 16" fill="none" xmlns="http://www.w3.org/2000/svg">
<path d="M17.9992 2.44236C17.3253 2.74093 16.6104 2.93692 15.8784 3.02379C16.6408 2.5668 17.2263 1.84315 17.5019 0.98092C16.7771 1.41104 15.9841 1.71409 15.1572 1.87697C14.4836 1.15936 13.524 0.710876 12.4619 0.710876C10.4226 0.710876 8.76921 2.36418 8.76921 4.40333C8.76921 4.69278 8.80191 4.97456 8.86483 5.24489C5.79599 5.09085 3.07516 3.62083 1.25389 1.38679C0.936112 1.93216 0.75402 2.56652 0.75402 3.24314C0.75402 4.52425 1.40596 5.65442 2.39671 6.31663C1.81033 6.29826 1.23684 6.13988 0.72414 5.85472C0.723929 5.87019 0.723929 5.88565 0.723929 5.90119C0.723929 7.69026 1.99674 9.18271 3.68591 9.52193C3.14215 9.66981 2.57179 9.69145 2.0184 9.58521C2.48825 11.0522 3.85197 12.1197 5.46773 12.1496C4.20399 13.1399 2.61178 13.7303 0.881836 13.7303C0.58374 13.7303 0.289862 13.7128 0.000976562 13.6787C1.63509 14.7264 3.57602 15.3377 5.66128 15.3377C12.4533 15.3377 16.1673 9.71105 16.1673 4.83156C16.1673 4.6714 16.1638 4.51216 16.1566 4.35383C16.8796 3.83124 17.5035 3.18396 17.9992 2.44236Z" fill="#55ACEE"/>
</svg>
