<svg width="20" height="16" viewBox="0 0 20 16" fill="none" xmlns="http://www.w3.org/2000/svg">
<g clip-path="url(#clip0_84_98)">
<path d="M19.5564 3.16305C19.4417 2.7392 19.218 2.35278 18.9075 2.04228C18.597 1.73178 18.2106 1.50803 17.7868 1.39332C16.2351 0.970123 9.98986 0.970123 9.98986 0.970123C9.98986 0.970123 3.74436 0.982933 2.19263 1.40613C1.76877 1.52085 1.38236 1.74461 1.07187 2.05512C0.761386 2.36564 0.537662 2.75207 0.42298 3.17594C-0.0463818 5.93306 -0.228456 10.1343 0.435868 12.7811C0.550562 13.205 0.774291 13.5914 1.08478 13.9019C1.39526 14.2124 1.78167 14.4361 2.20552 14.5508C3.75725 14.974 10.0026 14.974 10.0026 14.974C10.0026 14.974 16.2479 14.974 17.7995 14.5508C18.2234 14.4361 18.6098 14.2124 18.9203 13.9019C19.2308 13.5914 19.4545 13.205 19.5692 12.7811C20.0643 10.0201 20.2168 5.82152 19.5564 3.16313V3.16305Z" fill="#FF0000"/>
<path d="M8.00195 10.9729L13.1828 7.97204L8.00195 4.97122V10.9729Z" fill="white"/>
</g>
<defs>
<clipPath id="clip0_84_98">
<rect width="20" height="14.0598" fill="white" transform="translate(0 0.970123)"/>
</clipPath>
</defs>
</svg>
